PathFileType	4	(X/Y/Z)	Patient4_TMGait_0pt6_02_left_20.trc.trc
DataRate	CameraRate	NumFrames	NumMarkers	Units	OrigDataRate	OrigDataStartFrame	OrigNumFrames
82.840236686390	82.840236686390	4	33	mm	82.840236686390	71	       141
Frame#	Time	Sacral			L.Shoulder			Chest			R.Shoulder			Neck			R.ASIS			L.ASIS			R.Thigh.Superior			R.Thigh.Lateral			R.Thigh.Inferior			R.Patella			L.Thigh.Superior			L.Thigh.Lateral			L.Thigh.Inferior			L.Patella			L.Shank.Superior			L.Shank.Lateral			L.Shank.Inferior			R.Shank.Superior			R.Shank.Lateral			R.Shank.Inferior			R.Heel			R.Midfoot.Superior			R.Midfoot.Lateral			R.Toe			L.Heel			L.Midfoot.Lateral			L.Midfoot.Superior			L.Toe			L.Elbow			L.Wrist			R.Elbow			R.Wrist			
		X1	Y1	Z1	X2	Y2	Z2	X3	Y3	Z3	X4	Y4	Z4	X5	Y5	Z5	X6	Y6	Z6	X7	Y7	Z7	X8	Y8	Z8	X9	Y9	Z9	X10	Y10	Z10	X11	Y11	Z11	X12	Y12	Z12	X13	Y13	Z13	X14	Y14	Z14	X15	Y15	Z15	X16	Y16	Z16	X17	Y17	Z17	X18	Y18	Z18	X19	Y19	Z19	X20	Y20	Z20	X21	Y21	Z21	X22	Y22	Z22	X23	Y23	Z23	X24	Y24	Z24	X25	Y25	Z25	X26	Y26	Z26	X27	Y27	Z27	X28	Y28	Z28	X29	Y29	Z29	X30	Y30	Z30	X31	Y31	Z31	X32	Y32	Z32	X33	Y33	Z33	

71	25.415000000000	814.392885296576	1015.017326891428	428.649434474900	1029.426534837985	1439.174374069927	263.192466238215	1113.421031478944	1358.046553631486	428.676645229345	1022.139542315705	1437.326540662688	595.085413591872	1018.279088007277	1496.640661323224	415.264807573951	1032.667933494043	949.318056793149	561.369476743970	1033.376826104628	958.805207185323	285.728989501684	1107.322404705330	775.135211909360	533.478313346974	1061.881396762816	656.258162816064	605.056851352564	1147.078507110973	617.113768163406	522.503222881347	1181.364422219110	536.921732317084	539.746178524277	1049.663999633696	737.838163814129	320.401363461869	943.961573753495	635.795121450275	255.494476813312	1007.714517528889	547.415080632535	324.403849470354	995.131984540162	479.595696748913	334.236877145781	964.678978957574	411.317758430281	325.600700948891	865.763112154421	304.079567158489	278.435914188889	908.131514144154	190.168834359295	349.500114909191	1168.184953384263	448.767441327917	550.145549690579	1121.434475369529	332.475722531263	614.059796491976	1193.017141138135	249.609489648571	559.838980618833	1107.520571281568	59.249905091803	529.709293016337	1268.975753557890	137.020810800647	569.685275040443	1193.635272495171	56.710283016204	601.268524111840	1395.235312619786	102.924379797046	590.930258468043	772.737270637830	39.629933552399	399.723811385452	839.708169295096	36.140743468180	313.360582290744	925.783411583443	96.161626232245	334.508911516268	1050.900500957495	41.234750261048	294.495922362563	1094.774214377707	1120.053421611076	101.979602399274	1345.418870716480	1073.371241750020	134.993340672445	840.668557045347	1147.376687091746	703.063061636440	771.679948949878	895.229855893240	712.154959043915	
72	25.427071428571	815.745681247136	1013.566530733899	430.182612678116	1028.689568187398	1438.128343680007	264.396520647971	1112.993310463134	1357.684492792406	430.007444798911	1021.395618982627	1436.839847877392	596.217807553967	1017.290342413009	1495.776551484941	416.318780231101	1033.672223844186	947.860601447876	563.100030414716	1034.882770543079	957.919983850199	287.669412092996	1106.001914884089	771.012430417762	536.179486593089	1057.593455241000	652.511221954660	606.381461613622	1142.718793661236	612.708059963897	524.285039563159	1175.080455499289	533.090506538142	540.644035759494	1049.228149959556	736.135664233252	321.743301945293	942.336706702344	635.147012193121	256.569935828405	1005.044457652766	546.030529137166	325.271550993777	991.690557617334	478.326169739398	335.078860390975	960.629608158771	410.356201555016	326.294484760131	860.718244635564	304.116760450448	278.842657238818	901.788531942030	189.689454791136	349.758619306041	1163.002609568190	444.921413250372	550.761813265944	1116.594280321347	327.907384397934	613.311278485786	1189.510447944620	246.071351189002	559.221961592193	1105.970901157916	55.557990982806	527.097120857845	1266.634390319067	133.876405085589	568.635007718990	1191.472899201778	53.235894705388	599.282599847051	1392.803865264435	100.332549454607	590.452852740331	765.455421655979	39.623991570442	399.693138965922	832.450138598450	36.100450273838	313.385225061735	918.536769470482	96.108168796740	334.553047851133	1043.629063571894	41.086400131427	294.486097443295	1095.272744376386	1118.858334060874	104.166008561580	1346.323392505606	1077.421548188654	138.144956353688	839.301850072752	1147.503903218061	703.432065753941	769.979739746060	895.322470961734	712.179995540103	
73	25.439142857143	817.257754331794	1011.991889107068	431.921393540252	1027.794813646748	1436.959639439918	265.692660870746	1112.532089083671	1357.327136577668	431.427791304943	1020.565436936136	1436.267525605107	597.470857057377	1016.132972398723	1494.821702735809	417.468782251026	1034.887986376557	946.273946025248	564.968456165231	1036.580956307164	956.961564915230	289.807202237629	1105.268707984646	767.131392829414	538.912656678917	1053.747097864437	648.785522123413	607.342275183798	1139.082529047714	608.556379688171	525.952945862911	1169.218805942637	529.045249989288	541.206681151463	1048.936797245184	734.335202734346	323.145250764988	940.798787466159	634.450263132766	257.763557856415	1002.523362102819	544.573486525192	326.166635790469	988.433303329886	476.943862477712	335.940921014845	956.685721472529	409.327174206288	327.012180107421	855.688760668056	304.162316407851	279.281293830069	895.441804722520	189.180295254241	350.001856781895	1157.646370494586	440.699540966298	550.958163014233	1110.627376655247	323.424223015736	612.179070809441	1184.000572129471	242.032026010870	558.187600972021	1100.625992476076	52.462905967364	524.388138950907	1261.163033898616	129.722406668538	566.969254552163	1185.524030878297	49.818864422169	597.157920243231	1386.926662458068	95.637552578337	589.457296526506	758.143470399862	39.550949190181	399.643521847165	825.182043106753	36.001638249502	313.401422355249	911.270289190607	96.038921045172	334.576030125225	1036.366482344729	40.947945194110	294.460864873087	1095.378153025459	1117.336500543046	106.560631339386	1346.687888391951	1080.274286520920	141.390349336195	838.840377605345	1146.795172375152	704.004828361432	770.080743462607	894.351153527990	712.343869032908	
74	25.451214285714	818.885284629814	1010.335438085652	433.840949018466	1026.798434204344	1435.679233605389	267.094052233446	1112.074282136684	1356.956436533442	432.950009945442	1019.693056068935	1435.603870339932	598.861539634004	1014.866638577612	1493.789898859258	418.732954020695	1036.288336822464	944.594062731680	566.962886134127	1038.422868000912	955.939488321921	292.101612039907	1105.094863060313	763.494670095268	541.637531348354	1050.331945632898	645.146200817896	607.970394111539	1136.121220817543	604.677161314366	527.486142618295	1163.791990857763	524.876701103837	541.407332069126	1048.778491950978	732.470501885810	324.573683865793	939.357069403708	633.707501115372	259.070180022532	1000.201825056168	543.060429865155	327.080320583899	985.440214093060	475.437532956118	336.802204672021	952.897633599778	408.225026059451	327.750948009581	850.704273328171	304.229224574971	279.760555759128	889.116426124707	188.645112476093	350.225207806837	1152.248707427734	436.232746293337	550.742269951264	1103.921597853351	319.067438657032	610.789332016312	1176.964889062318	237.600584121082	556.776721108925	1092.214230235486	49.835778255908	521.781285606845	1253.239604046009	124.808852799077	564.733734540358	1176.607926261824	46.536015144374	595.022843383046	1378.407479089416	89.298691353932	587.877093690820	750.797693347860	39.432891191874	399.565866645938	817.903895546117	35.847083679583	313.403481955333	903.995740651247	95.950492194157	334.569333727188	1029.119500217645	40.814731735689	294.414760299643	1095.072675175094	1115.481775796222	109.154543236585	1346.551141162839	1081.909634553145	144.711311287842	839.277649409572	1145.272142889821	704.824129773416	771.960860882306	892.347059854658	712.672025899613	
